<svg xmlns="http://www.w3.org/2000/svg" width="400" height="300" viewBox="0 0 400 300"><rect width="100%" height="100%" fill="#28a745"/><path fill="#FFFFFF" d="M83.62 174.335h14.1v-6.35h-5.98v-35.98h5.98v-6.34h-14.1Zm46.65-39.73v-6.76h-27.51v36.4h8.42v-13.26h16.85v-6.76h-16.85v-9.62Zm22.98 30.26c11.44 0 19.92-7.95 19.92-18.82s-8.48-18.82-19.92-18.82c-11.49 0-19.91 8-19.91 18.82s8.42 18.82 19.91 18.82m0-7.17c-6.5 0-11.39-4.73-11.39-11.65s4.89-11.65 11.39-11.65 11.39 4.73 11.39 11.65-4.89 11.65-11.39 11.65m42.43 7.17c10.35 0 16.49-5.92 16.49-16.64v-20.38h-8.32v20.07c0 6.92-2.97 9.78-8.11 9.78-5.1 0-8.12-2.86-8.12-9.78v-20.07h-8.42v20.38c0 10.72 6.14 16.64 16.48 16.64m49.87-37.02v22.1l-18.09-22.1h-6.97v36.4h8.32v-22.1l18.15 22.1h6.91v-36.4Zm16.95 36.4h16.54c11.91 0 20.07-7.18 20.07-18.2s-8.16-18.2-20.07-18.2H262.5Zm8.43-6.92v-22.56h7.69c7.23 0 11.96 4.31 11.96 11.28s-4.73 11.28-11.96 11.28Zm45.45 17.01v-48.67h-14.04v6.34h5.92v35.98h-5.92v6.35Z"/></svg>