<svg xmlns="http://www.w3.org/2000/svg" width="400" height="300" viewBox="0 0 400 300"><rect width="100%" height="100%" fill="#dc3545"/><path fill="#FFFFFF" d="M85.48 182.76h18.97v-8.54H96.4v-48.44h8.05v-8.54H85.48Zm25.76-13.58h35.91v-9.24h-24.57v-39.76h-11.34Zm65.17.84c15.4 0 26.81-10.71 26.81-25.34s-11.41-25.34-26.81-25.34c-15.47 0-26.81 10.78-26.81 25.34s11.34 25.34 26.81 25.34m0-9.66c-8.75 0-15.33-6.37-15.33-15.68S167.66 129 176.41 129s15.33 6.37 15.33 15.68-6.58 15.68-15.33 15.68m51.45 9.66c14 0 20.79-7 20.79-15.19 0-17.99-28.49-11.76-28.49-20.79 0-3.08 2.59-5.6 9.31-5.6 4.34 0 9.03 1.26 13.58 3.85l3.5-8.61c-4.55-2.87-10.85-4.34-17.01-4.34-13.93 0-20.65 6.93-20.65 15.26 0 18.2 28.49 11.9 28.49 21.07 0 3.01-2.73 5.25-9.45 5.25-5.88 0-12.04-2.1-16.17-5.11l-3.85 8.54c4.34 3.36 12.18 5.67 19.95 5.67m38.01-.84h11.34v-39.76h15.68v-9.24h-42.7v9.24h15.68Zm48.65 13.58v-65.52h-18.9v8.54h7.98v48.44h-7.98v8.54Z"/></svg>